<svg xmlns="http://www.w3.org/2000/svg" width="48" height="28.342" viewBox="0 0 48 28.342"><g transform="translate(0 0)"><path d="M27.929,3.011a2.507,2.507,0,0,1,4-2.016L46.559,11.812a3.554,3.554,0,0,1,0,5.716L31.927,28.346a2.507,2.507,0,0,1-4-2.016s.388-2.929-2-3.393C20.35,21.85,10.233,21.29,3.4,28.222A1.978,1.978,0,0,1,.017,26.6C.954,19.059,5.658,7.208,25.693,5.433a2.215,2.215,0,0,0,2.236-2.422Zm0,0" transform="translate(0 -0.499)" fill="#43caff"/><path d="M242.023,159.268v7.051a2.528,2.528,0,0,0-2-2.473c-5.583-1.086-15.7-1.646-22.533,5.285a1.978,1.978,0,0,1-3.383-1.622c6.618-10.995,19.074-11.769,24.84-11.477a3.238,3.238,0,0,1,3.072,3.236Zm0,0" transform="translate(-214.094 -141.409)" fill="#00a9ec"/></g></svg>